Coordinates
version=1
nRows=107
nColumns=6
inDegrees=yes

Units are S.I. units (second, meters, Newtons, ...)
If the header above contains a line with 'inDegrees', this indicates whether rotational values are in degrees (yes) or radians (no).

endheader
time	foot_tx	hip_flexion_r	knee_angle_r	ankle_angle_r	lumbar
      8.10000000	      0.17615847	     56.18985757	    -72.41736959	      5.48686486	    -20.09624991
      8.11000000	      0.17616844	     56.19861321	    -72.41877085	      5.49129410	    -20.10317316
      8.12000000	      0.17617072	     56.20764705	    -72.42038984	      5.49626542	    -20.10958788
      8.13000000	      0.17616913	     56.21707932	    -72.42161745	      5.50116187	    -20.11566859
      8.14000000	      0.17616555	     56.22713529	    -72.42235737	      5.50565776	    -20.12176958
      8.15000000	      0.17616075	     56.23793982	    -72.42272305	      5.50967997	    -20.12812656
      8.16000000	      0.17615524	     56.24955738	    -72.42288769	      5.51324068	    -20.13485431
      8.17000000	      0.17615104	     56.26220080	    -72.42313285	      5.51630934	    -20.14162380
      8.18000000	      0.17614478	     56.27572512	    -72.42341383	      5.51903316	    -20.14898672
      8.19000000	      0.17613962	     56.29024460	    -72.42397914	      5.52135483	    -20.15672100
      8.20000000	      0.17613542	     56.33954137	    -72.42599482	      5.52114923	    -20.12680786
      8.21000000	      0.17612694	     56.35305366	    -72.42712632	      5.52333989	    -20.13892355
      8.22000000	      0.17611972	     56.36728558	    -72.42805706	      5.52494034	    -20.15188568
      8.23000000	      0.17611238	     56.38236881	    -72.42859773	      5.52595353	    -20.16599831
      8.24000000	      0.17610473	     56.39836321	    -72.42845861	      5.52621658	    -20.18154405
      8.25000000	      0.17610674	     56.39755123	    -72.42298874	      5.52405205	    -20.21902859
      8.26000000	      0.17610504	     56.41555495	    -72.41945189	      5.52110184	    -20.23834149
      8.27000000	      0.17608122	     56.43548852	    -72.41773444	      5.52042622	    -20.25852641
      8.28000000	      0.17609916	     56.45267403	    -72.40507373	      5.51062636	    -20.28714378
      8.29000000	      0.17607706	     56.43191751	    -72.39532157	      5.50822832	    -20.36175829
      8.30000000	      0.17606688	     56.45784255	    -72.38440760	      5.50000241	    -20.39055415
      8.31000000	      0.17605234	     56.48382849	    -72.37077916	      5.49017445	    -20.42637323
      8.32000000	      0.17601775	     56.46701741	    -72.35530002	      5.48397482	    -20.51755734
      8.33000000	      0.17599242	     56.50449215	    -72.34002264	      5.47196869	    -20.55783965
      8.34000000	      0.17596509	     56.54321235	    -72.32206903	      5.45798857	    -20.60723911
      8.35000000	      0.17591907	     56.53244910	    -72.30213932	      5.44806994	    -20.72260012
      8.36000000	      0.17588238	     56.58558273	    -72.28366158	      5.43238025	    -20.77904320
      8.37000000	      0.17583561	     56.59358460	    -72.26206571	      5.41957584	    -20.89799320
      8.38000000	      0.17579323	     56.62901405	    -72.24163463	      5.40501983	    -20.99930719
      8.39000000	      0.17575578	     56.69932356	    -72.22156925	      5.38779697	    -21.07554363
      8.40000000	      0.17570039	     56.70532539	    -72.20044397	      5.37730954	    -21.23734433
      8.41000000	      0.17564915	     56.74636119	    -72.18058619	      5.36491262	    -21.37525097
      8.42000000	      0.17559596	     56.79097974	    -72.16152105	      5.35360942	    -21.52457383
      8.43000000	      0.17553918	     56.83821668	    -72.14334986	      5.34377913	    -21.68659048
      8.44000000	      0.17548051	     56.88950138	    -72.12608709	      5.33539000	    -21.85969484
      8.45000000	      0.17542030	     56.94519998	    -72.10962275	      5.32850940	    -22.04333718
      8.46000000	      0.17536056	     57.00657688	    -72.09364788	      5.32289365	    -22.23604265
      8.47000000	      0.17529919	     57.07339353	    -72.07751911	      5.31847600	    -22.43821975
      8.48000000	      0.17524635	     57.15073176	    -72.06165736	      5.31430887	    -22.64402090
      8.49000000	      0.17519341	     57.23608894	    -72.04466258	      5.31050813	    -22.85715044
      8.50000000	      0.17514808	     57.33423145	    -72.02620036	      5.30596628	    -23.07258783
      8.51000000	      0.17510129	     57.44447618	    -72.00769938	      5.30220073	    -23.29136867
      8.52000000	      0.17505700	     57.56902461	    -71.98808245	      5.29833997	    -23.51136785
      8.53000000	      0.17501552	     57.70804717	    -71.96722160	      5.29460986	    -23.73241893
      8.54000000	      0.17497080	     57.85918546	    -71.94646813	      5.29266237	    -23.95720793
      8.55000000	      0.17492943	     58.05490122	    -71.92652954	      5.28970477	    -24.15056337
      8.56000000	      0.17487458	     58.19673790	    -71.90478016	      5.29450946	    -24.42094575
      8.57000000	      0.17482237	     58.41055324	    -71.88635600	      5.29763903	    -24.63058310
      8.58000000	      0.17475583	     58.57068668	    -71.86672260	      5.30918671	    -24.91801429
      8.59000000	      0.17469979	     58.80312347	    -71.84855695	      5.31774715	    -25.14565991
      8.60000000	      0.17462428	     58.97271791	    -71.82975491	      5.33636864	    -25.46218176
      8.61000000	      0.17455544	     59.18531654	    -71.81169770	      5.35455564	    -25.75200435
      8.62000000	      0.17448622	     59.40969350	    -71.79379734	      5.37508156	    -26.05041656
      8.63000000	      0.17442575	     59.68575168	    -71.77697742	      5.39387277	    -26.31482484
      8.64000000	      0.17436068	     59.92647999	    -71.75781312	      5.41731241	    -26.64196551
      8.65000000	      0.17428302	     60.23515539	    -71.74597870	      5.44196447	    -26.91865325
      8.66000000	      0.17421407	     60.56016636	    -71.73088037	      5.46553108	    -27.20046062
      8.67000000	      0.17414283	     60.94729302	    -71.71851452	      5.48868953	    -27.43415442
      8.68000000	      0.17406847	     61.34939454	    -71.70464794	      5.51365873	    -27.67115706
      8.69000000	      0.17398860	     61.78627597	    -71.69051464	      5.53962055	    -27.88879114
      8.70000000	      0.17390296	     62.25450518	    -71.67557537	      5.56726014	    -28.08869690
      8.71000000	      0.17381268	     62.74273146	    -71.65838815	      5.59805489	    -28.27968615
      8.72000000	      0.17371738	     63.24027280	    -71.63747555	      5.63369980	    -28.46989812
      8.73000000	      0.17361484	     63.73488840	    -71.61308493	      5.67672461	    -28.66963443
      8.74000000	      0.17351014	     64.22866171	    -71.58353746	      5.72616848	    -28.87629120
      8.75000000	      0.17340879	     64.72203454	    -71.54862893	      5.78133150	    -29.08952534
      8.76000000	      0.17330796	     65.22463889	    -71.50873522	      5.84163761	    -29.30043241
      8.77000000	      0.17321388	     65.74240907	    -71.46369689	      5.90581446	    -29.50312256
      8.78000000	      0.17312538	     66.27668176	    -71.41435321	      5.97432486	    -29.69650254
      8.79000000	      0.17303594	     66.82951342	    -71.36343549	      6.04900683	    -29.87758951
      8.80000000	      0.17295598	     67.40285844	    -71.30805349	      6.12760614	    -30.04402513
      8.81000000	      0.17288245	     67.99421768	    -71.25001905	      6.21198751	    -30.19669662
      8.82000000	      0.17282126	     68.60055283	    -71.18878167	      6.30199822	    -30.33699468
      8.83000000	      0.17277114	     69.21883247	    -71.12442441	      6.39863744	    -30.46623324
      8.84000000	      0.17275086	     69.85249846	    -71.05271741	      6.49849715	    -30.57831272
      8.85000000	      0.17273153	     70.48069731	    -70.98066579	      6.60934003	    -30.69522705
      8.86000000	      0.17274685	     71.12444343	    -70.89835041	      6.72195312	    -30.79170251
      8.87000000	      0.17278889	     71.77600682	    -70.80609475	      6.83806646	    -30.87476526
      8.88000000	      0.17285913	     72.43532107	    -70.70157844	      6.95670376	    -30.94243651
      8.89000000	      0.17296643	     73.10780915	    -70.58042890	      7.07489298	    -30.98592937
      8.90000000	      0.17308061	     73.77889055	    -70.44746325	      7.19858892	    -31.02029697
      8.91000000	      0.17322246	     74.46279472	    -70.29507922	      7.32138236	    -31.02561534
      8.92000000	      0.17337401	     75.15413869	    -70.12374611	      7.44538400	    -31.00508878
      8.93000000	      0.17353563	     75.84333383	    -69.93381440	      7.57122478	    -30.96568635
      8.94000000	      0.17368602	     76.52956315	    -69.72646692	      7.70112619	    -30.90451676
      8.95000000	      0.17382882	     77.21030441	    -69.50086282	      7.83399526	    -30.82028792
      8.96000000	      0.17395946	     77.88085605	    -69.25838832	      7.97066635	    -30.71393193
      8.97000000	      0.17406111	     78.52853521	    -69.00524511	      8.11600548	    -30.59511286
      8.98000000	      0.17414161	     79.15278248	    -68.74082848	      8.26830140	    -30.45944309
      8.99000000	      0.17420603	     79.73920005	    -68.46874258	      8.42922742	    -30.31918708
      9.00000000	      0.17424982	     80.28414143	    -68.19249099	      8.60001759	    -30.17305515
      9.01000000	      0.17427817	     80.77945282	    -67.91427549	      8.78047397	    -30.02639096
      9.02000000	      0.17429961	     81.21976457	    -67.63577086	      8.96968832	    -29.88135605
      9.03000000	      0.17431984	     81.60143714	    -67.35807873	      9.16624684	    -29.73879384
      9.04000000	      0.17434761	     81.92126246	    -67.08088794	      9.36786918	    -29.59973658
      9.05000000	      0.17438797	     82.17683442	    -66.80332566	      9.57228391	    -29.46548788
      9.06000000	      0.17444050	     82.36774404	    -66.52389151	      9.77746733	    -29.33488450
      9.07000000	      0.17450309	     82.49486675	    -66.24089618	      9.98161348	    -29.20656425
      9.08000000	      0.17457227	     82.56079740	    -65.95224996	     10.18310975	    -29.07720581
      9.09000000	      0.17464886	     82.56630923	    -65.65518142	     10.38023840	    -28.94607733
      9.10000000	      0.17472891	     82.51448032	    -65.34736822	     10.57197680	    -28.80915424
      9.11000000	      0.17481149	     82.38998619	    -65.02616685	     10.75858670	    -28.68536162
      9.12000000	      0.17490329	     82.22904687	    -64.68721811	     10.93500408	    -28.53228960
      9.13000000	      0.17499530	     82.03089445	    -64.32878245	     11.10152466	    -28.35105030
      9.14000000	      0.17509753	     81.79308916	    -63.94516889	     11.25528641	    -28.14633241
      9.15000000	      0.17520017	     81.51619298	    -63.53445821	     11.39621809	    -27.91901339
      9.16000000	      0.17529966	     81.20277744	    -63.09362063	     11.52293451	    -27.66955742
